<svg width="1200" height="860" viewBox="0 0 1200 860" fill="none" xmlns="http://www.w3.org/2000/svg">
  <rect width="1200" height="860" fill="#FCF4F6"/>
  <rect x="56" y="52" width="1088" height="756" rx="36" fill="#FFFDFD"/>
  <rect x="56" y="52" width="1088" height="756" rx="36" stroke="#F0CDD8" stroke-width="2"/>
  <rect x="56" y="52" width="1088" height="156" rx="36" fill="#351C27"/>
  <path d="M56 172C56 152.118 72.1178 136 92 136H1108C1127.88 136 1144 152.118 1144 172V208H56V172Z" fill="#351C27"/>
  <text x="88" y="112" fill="#F5DCE5" font-family="Arial, Helvetica, sans-serif" font-size="20" font-weight="700" letter-spacing="3">HAPPYBY</text>
  <text x="88" y="154" fill="white" font-family="Arial, Helvetica, sans-serif" font-size="42" font-weight="700">Ribbed Crop Top</text>
  <text x="88" y="187" fill="#F1BFD0" font-family="Arial, Helvetica, sans-serif" font-size="22">Body measurements in inches. Stretch fabric offers a comfortable close fit.</text>

  <rect x="88" y="248" width="1024" height="88" rx="22" fill="#FBE7EE"/>
  <text x="126" y="302" fill="#6C3B4F" font-family="Arial, Helvetica, sans-serif" font-size="26" font-weight="700">SIZE</text>
  <text x="310" y="302" fill="#6C3B4F" font-family="Arial, Helvetica, sans-serif" font-size="26" font-weight="700">BUST</text>
  <text x="500" y="302" fill="#6C3B4F" font-family="Arial, Helvetica, sans-serif" font-size="26" font-weight="700">WAIST</text>
  <text x="704" y="302" fill="#6C3B4F" font-family="Arial, Helvetica, sans-serif" font-size="26" font-weight="700">HEM</text>
  <text x="910" y="302" fill="#6C3B4F" font-family="Arial, Helvetica, sans-serif" font-size="26" font-weight="700">LENGTH</text>

  <rect x="88" y="356" width="1024" height="104" rx="20" fill="#FFF8FB"/>
  <rect x="88" y="474" width="1024" height="104" rx="20" fill="#FDF0F5"/>

  <text x="128" y="422" fill="#2D1A22" font-family="Arial, Helvetica, sans-serif" font-size="30" font-weight="700">S</text>
  <text x="310" y="422" fill="#2D1A22" font-family="Arial, Helvetica, sans-serif" font-size="30">30 - 32</text>
  <text x="500" y="422" fill="#2D1A22" font-family="Arial, Helvetica, sans-serif" font-size="30">24 - 26</text>
  <text x="712" y="422" fill="#2D1A22" font-family="Arial, Helvetica, sans-serif" font-size="30">26 - 28</text>
  <text x="930" y="422" fill="#2D1A22" font-family="Arial, Helvetica, sans-serif" font-size="30">15</text>

  <text x="122" y="540" fill="#2D1A22" font-family="Arial, Helvetica, sans-serif" font-size="30" font-weight="700">M</text>
  <text x="310" y="540" fill="#2D1A22" font-family="Arial, Helvetica, sans-serif" font-size="30">32 - 34</text>
  <text x="500" y="540" fill="#2D1A22" font-family="Arial, Helvetica, sans-serif" font-size="30">26 - 28</text>
  <text x="712" y="540" fill="#2D1A22" font-family="Arial, Helvetica, sans-serif" font-size="30">28 - 30</text>
  <text x="930" y="540" fill="#2D1A22" font-family="Arial, Helvetica, sans-serif" font-size="30">15.5</text>

  <rect x="88" y="608" width="1024" height="166" rx="24" fill="#FFF2F6" stroke="#F0CCD8" stroke-width="2"/>
  <text x="124" y="666" fill="#7A455A" font-family="Arial, Helvetica, sans-serif" font-size="22" font-weight="700">Fit note:</text>
  <text x="230" y="666" fill="#7A455A" font-family="Arial, Helvetica, sans-serif" font-size="20">Ribbed knit stretches naturally.</text>
  <text x="230" y="693" fill="#7A455A" font-family="Arial, Helvetica, sans-serif" font-size="20">Each size comfortably flexes around the listed range.</text>
  <text x="124" y="726" fill="#8E6071" font-family="Arial, Helvetica, sans-serif" font-size="18">Choose your usual size for a close fit, or size up for a softer fit.</text>
  <text x="124" y="752" fill="#8E6071" font-family="Arial, Helvetica, sans-serif" font-size="18">Allow a 0.5 inch variation due to manual measuring.</text>
</svg>
